<svg xmlns="http://www.w3.org/2000/svg" baseProfile="full" width="24" height="24" viewBox="0 0 24.00 24.00" enable-background="new 0 0 24.00 24.00"><path fill="#191819" fill-rule="evenodd" stroke-linejoin="round" d="M12 2C6.477 2 2 6.477 2 12c0 4.418 2.865 8.166 6.84 9.49.5.09.68-.218.68-.483 0-.237-.007-.866-.012-1.7-2.782.604-3.37-1.34-3.37-1.34-.453-1.156-1.11-1.464-1.11-1.464-.907-.62.07-.608.07-.608 1.003.07 1.53 1.03 1.53 1.03.893 1.53 2.342 1.087 2.912.83.09-.645.35-1.085.635-1.335-2.22-.253-4.555-1.11-4.555-4.943 0-1.09.39-1.984 1.03-2.683-.104-.253-.447-1.27.097-2.647 0 0 .84-.268 2.75 1.026.797-.222 1.653-.333 2.503-.337.85.004 1.705.115 2.504.337 1.91-1.294 2.747-1.026 2.747-1.026.547 1.377.203 2.394.1 2.647.642.7 1.03 1.592 1.03 2.683 0 3.842-2.34 4.687-4.567 4.935.36.31.678.92.678 1.852.002 1.337-.01 2.415-.01 2.743 0 .267.18.578.687.48 3.97-1.324 6.833-5.07 6.833-9.486 0-5.523-4.478-10-10-10z"/></svg>